<svg width="84" height="92" viewBox="0 0 84 92" fill="none" xmlns="http://www.w3.org/2000/svg">
<g filter="url(#filter0_f_6_111)">
<rect x="20" y="44.8684" width="43.2066" height="26.5887" fill="#FBA457" fill-opacity="0.5"/>
</g>
<rect x="20" y="44.8684" width="43.2066" height="26.5887" fill="#FBA457"/>
<path d="M79.0107 74.9894H74.3398L74.7704 74.4765C76.9757 71.8503 77.6613 68.3344 76.6047 65.072L72.3848 52.043C71.3261 48.7743 68.7055 46.3199 65.3746 45.4773L63.2776 44.9469C62.4536 43.7902 61.1586 42.9911 59.6742 42.8345L59.6755 37.6453C59.6757 36.9734 59.1312 36.4288 58.4595 36.4286C57.7878 36.4286 57.243 36.9729 57.2429 37.6446L57.2416 42.8058H54.8128L51.8042 42.0448C51.0428 41.852 50.4759 41.2256 50.3604 40.4487L49.6692 35.8066C52.4572 33.6119 54.5226 30.6554 55.1463 27.1229H56.1497C56.5322 27.1229 56.9004 27.0609 57.2456 26.948L57.2443 31.9485C57.2442 32.6203 57.7886 33.1649 58.4603 33.1651C59.132 33.1651 59.6768 32.6208 59.677 31.9491C59.6776 30.9791 59.681 19.615 59.681 15.8701C59.6886 7.10157 52.5949 0 43.8247 0H39.3846L39.3325 0.000162284C39.3229 0.000162284 39.3135 0.000973707 39.3038 0.000973707C30.5636 0.0443036 23.5206 7.13532 23.5281 15.8695C23.5281 19.9543 23.5257 15.7572 23.5351 42.8343C22.0507 42.9911 20.7556 43.79 19.9317 44.9468L17.8347 45.4771C14.5038 46.3197 11.8832 48.7741 10.8245 52.0428L6.6046 65.0718C5.54796 68.3344 6.23362 71.8501 8.43874 74.4762L8.86944 74.9892H4.19857C1.96537 74.9892 0.148438 76.8061 0.148438 79.0393C0.148438 81.2727 1.96521 83.0896 4.19857 83.0896H79.0109C81.2441 83.0896 83.061 81.2727 83.061 79.0395C83.0608 76.8063 81.2441 74.9894 79.0107 74.9894ZM70.0705 52.7923L74.2903 65.8213C75.0872 68.2812 74.5701 70.9319 72.9074 72.9121L71.1634 74.9894H68.9225C69.1699 74.3247 69.3007 73.6158 69.3007 72.8891C69.3007 71.4983 68.1693 70.3669 66.7785 70.3669H64.2187V47.8872C64.2187 47.8221 64.2162 47.7575 64.2138 47.693C64.3748 47.7769 68.6135 48.2937 70.0705 52.7923ZM66.7787 72.7995C66.828 72.7995 66.8681 72.8396 66.8681 72.8889C66.8681 73.6513 66.6257 74.3801 66.1839 74.9892H17.0254C16.5836 74.38 16.3412 73.6512 16.3412 72.8889C16.3412 72.8394 16.3813 72.7995 16.4306 72.7995H66.7787ZM57.2464 23.6307C57.2255 24.2184 56.7422 24.6901 56.1497 24.6901H55.3375L55.3498 19.7598H56.1515C56.7479 19.7598 57.2338 20.2385 57.2472 20.8316L57.2464 23.6307ZM36 5.83153C36 3.97159 37.4855 2.45342 39.3244 2.43427C39.3445 2.43427 39.3645 2.43281 39.3846 2.43281H43.8247C51.2477 2.43281 57.2549 8.44301 57.2484 15.8688L57.248 17.3271C55.5755 17.3271 52.4006 17.3271 47.4232 17.3271C41.1244 17.3271 36.0001 12.2027 36.0001 5.90391L36 5.83153ZM36.376 14.2556C38.9081 17.5967 42.9172 19.7598 47.423 19.7598H52.9168L52.9039 24.9467C52.9039 29.0747 50.4866 32.2117 47.7614 34.2151C47.7435 34.2251 44.4949 36.6972 41.6045 36.7777C38.9344 36.7032 35.5881 34.2949 35.4503 34.2165C32.7239 32.2125 30.3051 29.0736 30.3051 24.941C30.2775 18.8545 30.3043 24.7472 30.2756 18.4112C30.2728 17.789 30.7754 17.2838 31.3979 17.2838C33.5607 17.2839 35.4403 16.053 36.376 14.2556ZM48.7945 42.8058H34.4148C34.8486 42.2331 35.1446 41.5513 35.2554 40.8071L35.7757 37.3124C37.9823 38.571 40.1298 39.1797 41.5787 39.2107C41.5874 39.2108 41.596 39.211 41.6048 39.211C41.6136 39.211 41.6222 39.2108 41.6309 39.2107C43.0798 39.1797 45.2273 38.5711 47.4339 37.3124L47.9542 40.8071C48.0647 41.5513 48.3607 42.2331 48.7945 42.8058ZM27.0597 27.1229H28.0635C28.6866 30.6518 30.7485 33.6088 33.5402 35.8066L32.8491 40.4487C32.7335 41.2256 32.1667 41.852 31.4054 42.0446L28.3965 42.8056H25.9677L25.9637 26.948C26.309 27.0611 26.6771 27.1229 27.0597 27.1229ZM25.9629 23.6307L25.9622 20.8316C25.9757 20.2385 26.4616 19.7598 27.058 19.7598H27.8491L27.8715 24.6901H27.0597C26.4671 24.6903 25.9838 24.2184 25.9629 23.6307ZM34.0337 3.54121C33.734 4.24504 33.5673 5.01913 33.5673 5.83137C33.5837 5.99803 33.4526 8.30718 34.575 11.0819V11.6743C34.575 13.426 33.1498 14.8511 31.3981 14.8511C29.7986 14.8511 28.4648 15.899 28.0114 17.3269H27.058C26.6751 17.3269 26.3067 17.3889 25.9614 17.5022L25.9609 15.868C25.956 10.2961 29.3217 5.58989 34.0337 3.54121ZM8.9191 65.8214L13.139 52.7924C14.5953 48.2958 18.8316 47.7785 18.9957 47.6931C18.9932 47.7577 18.9908 47.8221 18.9908 47.8874L18.9906 60.7827C18.9906 61.4545 19.5353 60.7827 20.207 60.7827C20.8788 60.7827 21.4233 61.4545 21.4233 60.7827L21.4234 47.8874C21.4234 46.4268 22.6117 45.2386 24.0722 45.2386H59.1374C60.5979 45.2386 61.7862 46.4268 61.7862 47.8874V70.3669H21.4233V60.7827C21.4233 60.1108 20.8786 59.5663 20.207 59.5663C19.5351 59.5663 18.9906 60.1108 18.9906 60.7827V70.3669H16.4308C15.04 70.3669 13.9085 71.4983 13.9085 72.8891C13.9085 73.6158 14.0395 74.3248 14.2868 74.9894H12.046L10.3019 72.912C8.63932 70.9321 8.12228 68.2812 8.9191 65.8214ZM79.0107 80.6568H4.19857C3.30665 80.6568 2.58124 79.9313 2.58124 79.0395C2.58124 78.1476 3.30682 77.4222 4.19857 77.4222H79.0109C79.9028 77.4222 80.6282 78.1478 80.6282 79.0395C80.6282 79.9313 79.9026 80.6568 79.0107 80.6568Z" fill="#222222"/>
<ellipse cx="41.6048" cy="57.8304" rx="3.32359" ry="3.32358" fill="#F6FAFD"/>
<path d="M41.6049 63.5066C44.6761 63.5066 47.1747 61.0079 47.1747 57.9369C47.1747 54.8658 44.6761 52.3669 41.6049 52.3669C38.5337 52.3669 36.0352 54.8656 36.0352 57.9367C36.0352 61.0078 38.5337 63.5066 41.6049 63.5066ZM41.6049 54.7997C43.3347 54.7997 44.742 56.2069 44.742 57.9369C44.742 59.6668 43.3347 61.074 41.6049 61.074C39.8751 61.074 38.4678 59.6668 38.4678 57.9369C38.4678 56.2069 39.8751 54.7997 41.6049 54.7997Z" fill="#222222"/>
<defs>
<filter id="filter0_f_6_111" x="0" y="24.8684" width="83.207" height="66.5886" filterUnits="userSpaceOnUse" color-interpolation-filters="sRGB">
<feFlood flood-opacity="0" result="BackgroundImageFix"/>
<feBlend mode="normal" in="SourceGraphic" in2="BackgroundImageFix" result="shape"/>
<feGaussianBlur stdDeviation="10" result="effect1_foregroundBlur_6_111"/>
</filter>
</defs>
</svg>
