<svg width="40" height="40" viewBox="0 0 40 40" fill="none" xmlns="http://www.w3.org/2000/svg">
<path d="M19.9997 27.9999C19.737 28.0002 19.4769 27.9486 19.2342 27.848C18.9916 27.7475 18.7712 27.5999 18.5857 27.4139L8.5857 17.4139C8.40001 17.2283 8.25271 17.0078 8.15222 16.7652C8.05172 16.5226 8 16.2625 8 15.9999C8 15.7373 8.05172 15.4773 8.15222 15.2347C8.25271 14.9921 8.40001 14.7716 8.5857 14.5859C8.77139 14.4003 8.99183 14.253 9.23445 14.1525C9.47706 14.052 9.73709 14.0002 9.9997 14.0002C10.2623 14.0002 10.5223 14.052 10.7649 14.1525C11.0076 14.253 11.228 14.4003 11.4137 14.5859L19.9997 23.1719L28.5857 14.5859C28.7714 14.4003 28.9918 14.253 29.2344 14.1525C29.4771 14.052 29.7371 14.0002 29.9997 14.0002C30.2623 14.0002 30.5223 14.052 30.7649 14.1525C31.0076 14.253 31.228 14.4003 31.4137 14.5859C31.5994 14.7716 31.7467 14.9921 31.8472 15.2347C31.9477 15.4773 31.9994 15.7373 31.9994 15.9999C31.9994 16.2625 31.9477 16.5226 31.8472 16.7652C31.7467 17.0078 31.5994 17.2283 31.4137 17.4139L21.4137 27.4139C21.2282 27.5999 21.0078 27.7475 20.7652 27.848C20.5225 27.9486 20.2624 28.0002 19.9997 27.9999Z" fill="#1DBF73"/>
</svg>
