<svg width="20" height="20" viewBox="0 0 20 20" fill="none" xmlns="http://www.w3.org/2000/svg">
<path d="M9.99985 14C9.86851 14.0001 9.73844 13.9743 9.61712 13.924C9.49579 13.8737 9.38559 13.8 9.29285 13.707L4.29285 8.70697C4.2 8.61413 4.12636 8.5039 4.07611 8.3826C4.02586 8.26129 4 8.13127 4 7.99997C4 7.86867 4.02586 7.73865 4.07611 7.61735C4.12636 7.49604 4.2 7.38582 4.29285 7.29297C4.38569 7.20013 4.49592 7.12648 4.61722 7.07623C4.73853 7.02598 4.86855 7.00012 4.99985 7.00012C5.13115 7.00012 5.26117 7.02598 5.38247 7.07623C5.50378 7.12648 5.614 7.20013 5.70685 7.29297L9.99985 11.586L14.2928 7.29297C14.3857 7.20013 14.4959 7.12648 14.6172 7.07623C14.7385 7.02598 14.8685 7.00012 14.9998 7.00012C15.1312 7.00012 15.2612 7.02598 15.3825 7.07623C15.5038 7.12648 15.614 7.20013 15.7068 7.29297C15.7997 7.38582 15.8733 7.49604 15.9236 7.61735C15.9738 7.73865 15.9997 7.86867 15.9997 7.99997C15.9997 8.13127 15.9738 8.26129 15.9236 8.3826C15.8733 8.5039 15.7997 8.61413 15.7068 8.70697L10.7068 13.707C10.6141 13.8 10.5039 13.8737 10.3826 13.924C10.2613 13.9743 10.1312 14.0001 9.99985 14Z" fill="#222222"/>
</svg>
