<svg width="6" height="9" viewBox="0 0 6 9" fill="none" xmlns="http://www.w3.org/2000/svg">
<path d="M0.000113964 4.49989C1.19209e-05 4.40139 0.0193729 4.30383 0.0570846 4.21284C0.0947962 4.12184 0.150115 4.03919 0.219864 3.96964L3.96986 0.219637C4.0395 0.150003 4.12216 0.094767 4.21314 0.0570817C4.30412 0.0193964 4.40164 7.33708e-10 4.50011 0C4.59859 -7.33707e-10 4.6961 0.0193964 4.78708 0.0570817C4.87806 0.094767 4.96073 0.150003 5.03036 0.219637C5.1 0.28927 5.15523 0.371937 5.19292 0.462917C5.2306 0.553898 5.25 0.65141 5.25 0.749887C5.25 0.848363 5.2306 0.945875 5.19292 1.03686C5.15523 1.12784 5.1 1.2105 5.03036 1.28014L1.81061 4.49989L5.03036 7.71964C5.1 7.78927 5.15523 7.87194 5.19292 7.96292C5.2306 8.0539 5.25 8.15141 5.25 8.24989C5.25 8.34836 5.2306 8.44588 5.19292 8.53686C5.15523 8.62784 5.1 8.7105 5.03036 8.78014C4.96073 8.84977 4.87806 8.90501 4.78708 8.94269C4.6961 8.98038 4.59859 8.99977 4.50011 8.99977C4.40164 8.99977 4.30412 8.98038 4.21314 8.94269C4.12216 8.90501 4.0395 8.84977 3.96986 8.78014L0.219864 5.03014C0.150115 4.96058 0.0947962 4.87793 0.0570846 4.78694C0.0193729 4.69594 1.19209e-05 4.59839 0.000113964 4.49989Z" fill="#1DBF73"/>
</svg>
